<?xml version="1.0" encoding="UTF-8" standalone="no"?>
<svg
   width="177"
   height="177"
   version="1.1"
   id="svg13"
   xmlns:xlink="http://www.w3.org/1999/xlink"
   xmlns="http://www.w3.org/2000/svg">
  <defs
     id="defs13">
    <linearGradient
       id="linearGradient1">
      <stop
         style="stop-color:#00d3af;stop-opacity:1;"
         offset="0"
         id="stop1" />
      <stop
         style="stop-color:#02bba7;stop-opacity:1;"
         offset="0.09667434"
         id="stop3" />
      <stop
         style="stop-color:#02c950;stop-opacity:1;"
         offset="1"
         id="stop2" />
    </linearGradient>
    <linearGradient
       xlink:href="#linearGradient1"
       id="linearGradient2"
       x1="11.300532"
       y1="88.499998"
       x2="165.69947"
       y2="88.499998"
       gradientUnits="userSpaceOnUse" />
  </defs>
  <path
     fill="#0278b0"
     d="m 87.748669,2.7912359 c 7.113056,1.2705606 24.540071,12.7462431 31.678101,17.0246261 2.81699,1.688428 5.82422,3.341072 6.6568,6.743461 1.5177,6.201837 1.44892,32.3584 0.24265,38.912124 -0.26539,1.442406 -1.00886,2.732537 -1.75775,3.974768 5.91352,3.07231 11.55359,6.914373 17.25369,10.373237 5.9698,3.622879 12.23407,7.024338 17.95784,11.022962 2.21234,1.544914 5.41065,3.902449 5.91947,6.724264 -1.6998,5.278692 -11.31335,9.438902 -15.87596,12.337302 3.59344,1.77082 12.03091,5.6412 13.5201,9.52352 1.81908,4.73967 1.46868,27.44092 -0.36904,31.89357 -3.68663,4.1768 -32.08014,21.02754 -37.32882,22.0955 -3.64151,0.73994 -32.140135,-17.73231 -36.364654,-20.58954 -0.0328,-0.013 -0.06337,-0.0354 -0.09842,-0.0428 -0.293738,-0.0709 -0.894071,-0.1957 -1.188741,-0.18079 -2.382884,0.12488 -31.122505,18.87483 -38.280479,21.60532 -5.60728,-2.53852 -33.713949,-18.58408 -36.091616,-22.80561 -2.018136,-3.58411 -1.869963,-26.21453 -0.590829,-30.47335 1.732416,-5.7683 8.192017,-8.38509 13.074088,-10.97245 -4.162267,-3.22494 -11.32434,-5.72672 -14.219214,-10.160552 -0.591387,-0.905812 -0.720737,-1.805475 -0.450857,-2.8548 0.565108,-2.197065 2.425007,-4.026397 4.134496,-5.408599 3.71458,-3.003534 8.35454,-5.251294 12.474872,-7.689534 7.897542,-4.655628 15.769728,-9.354114 23.61638,-14.095282 C 51.291928,68.970255 50.947308,68.170121 50.6696,67.354329 49.45719,63.792771 49.002607,28.60734 50.69831,25.482098 53.486199,20.344267 81.544969,4.4779998 87.74867,2.7912484 Z M 107.2352,80.424818 c 4.54322,3.306217 20.4984,10.779733 21.25343,15.742508 0.20446,1.344927 -0.0833,2.798702 -0.89613,3.904504 -2.99308,4.07206 -33.880934,21.4096 -39.827616,23.76918 -6.835346,-3.23184 -13.25469,-7.66828 -19.712988,-11.59291 -5.48576,-3.33398 -11.607454,-6.49016 -16.646085,-10.46343 -1.645745,-1.29796 -3.139592,-2.631143 -4.060502,-4.550125 -0.04195,-1.373257 0.896867,-2.499745 1.796156,-3.449172 4.759246,-5.025025 13.016497,-9.327078 19.256169,-12.263888 -3.155436,-2.083742 -6.281422,-4.298698 -9.563038,-6.177049 l -27.615182,16.551219 -8.700651,4.979548 c 21.389302,13.836557 44.388379,25.435617 65.519171,39.608057 7.888404,-5.43488 16.329406,-10.19693 24.551816,-15.10434 l 40.87939,-24.498499 c -5.22987,-2.884622 -33.62711,-20.921672 -35.88102,-21.488085 -0.3612,-0.09076 -0.97457,-0.03635 -1.36001,-0.05051 -2.92116,1.763539 -5.85052,3.743094 -8.99291,5.082988 z M 58.860316,65.417024 c 8.865787,6.171457 18.981258,12.063529 28.548395,17.07234 C 86.917036,75.93452 86.131627,57.921701 87.337521,52.114992 87.730226,50.22434 88.552542,48.45372 89.823848,46.993048 94.985109,41.062955 109.90548,34.27234 117.06681,28.708672 107.80013,22.754722 98.220318,16.715224 88.556634,11.429262 84.093546,14.057055 60.21419,26.919039 59.176792,30.581991 c -1.57399,5.557702 -0.51609,27.799512 -0.316476,34.835033 z m 28.935694,38.909326 -8.550614,4.68375 c 2.312806,1.43829 7.224885,5.31597 9.765261,5.22352 2.61288,-1.84108 5.228555,-3.58859 7.972831,-5.23246 -2.104429,-1.18091 -7.027877,-4.78775 -9.187478,-4.67481 z m 32.48384,22.76142 c -9.29186,6.14313 -19.18218,12.14647 -29.060573,17.30365 11.728963,6.01265 23.018273,13.40639 34.341293,20.17205 8.95171,-6.28105 18.78892,-11.93587 28.34655,-17.26264 -11.46432,-6.24565 -22.3076,-13.69343 -33.62727,-20.21306 z m -65.163746,0.0392 c -10.5667,7.23905 -22.445712,13.86863 -33.698295,20.0304 4.136545,2.53478 26.768264,17.38006 29.182276,17.46766 11.088567,-6.78615 22.217021,-13.5052 33.384802,-20.16087 -5.565719,-3.43879 -23.762124,-15.57592 -28.868783,-17.33724 z"
     id="path1"
     style="stroke-width:1.86382;fill:url(#linearGradient2);fill-rule:nonzero" />
</svg>
