<?xml version="1.0" encoding="utf-8" ?>
<svg xmlns="http://www.w3.org/2000/svg" xmlns:xlink="http://www.w3.org/1999/xlink" width="532" height="177">
	<path fill="#0278B0" d="M72.0217 39.0396C75.8381 39.7213 85.1883 45.8784 89.0181 48.1739C90.5295 49.0798 92.143 49.9665 92.5897 51.792C93.404 55.1195 93.3671 69.1534 92.7199 72.6697C92.5775 73.4436 92.1786 74.1358 91.7768 74.8023C94.9496 76.4507 97.9757 78.5121 101.034 80.3679C104.237 82.3117 107.598 84.1367 110.669 86.2821C111.856 87.111 113.572 88.3759 113.845 89.8899C112.933 92.7221 107.775 94.9542 105.327 96.5093C107.255 97.4594 111.782 99.536 112.581 101.619C113.557 104.162 113.369 116.342 112.383 118.731C110.405 120.972 95.1709 130.013 92.3548 130.586C90.401 130.983 75.1105 121.072 72.8439 119.539C72.8263 119.532 72.8099 119.52 72.7911 119.516C72.6335 119.478 72.3114 119.411 72.1533 119.419C70.8748 119.486 55.455 129.546 51.6145 131.011C48.606 129.649 33.5258 121.04 32.2501 118.775C31.1673 116.852 31.2468 104.71 31.9331 102.425C32.8626 99.3301 36.3284 97.9261 38.9478 96.5379C36.7146 94.8076 32.8719 93.4653 31.3187 91.0864C31.0014 90.6004 30.932 90.1177 31.0768 89.5547C31.38 88.3759 32.3779 87.3944 33.2951 86.6528C35.2881 85.0413 37.7776 83.8353 39.9883 82.5271C44.2256 80.0292 48.4493 77.5083 52.6593 74.9645C52.4614 74.5469 52.2765 74.1176 52.1275 73.6799C51.477 71.769 51.2331 52.8908 52.1429 51.214C53.6387 48.4574 68.6932 39.9446 72.0217 39.0396ZM82.4769 80.6927C84.9145 82.4666 93.475 86.4764 93.8801 89.1391C93.9898 89.8607 93.8354 90.6407 93.3993 91.234C91.7934 93.4188 75.221 102.721 72.0304 103.987C68.363 102.253 64.9188 99.8727 61.4537 97.767C58.5104 95.9782 55.2259 94.2848 52.5225 92.153C51.6395 91.4566 50.838 90.7413 50.3439 89.7117C50.3214 88.9749 50.8251 88.3705 51.3076 87.8611C53.8611 85.165 58.2914 82.8568 61.6392 81.2811C59.9462 80.1631 58.269 78.9747 56.5083 77.9669L41.6918 86.8472L37.0236 89.5189C48.4997 96.9427 60.8395 103.166 72.1769 110.77C76.4093 107.854 80.9382 105.299 85.3498 102.666L107.283 89.5217C104.477 87.974 89.2409 78.2965 88.0316 77.9926C87.8378 77.9439 87.5087 77.9731 87.3019 77.9655C85.7346 78.9117 84.1629 79.9738 82.4769 80.6927ZM56.5221 72.6405C61.2789 75.9517 66.7062 79.113 71.8393 81.8004C71.5755 78.2835 71.1541 68.619 71.8011 65.5035C72.0118 64.4891 72.453 63.5391 73.1351 62.7554C75.9043 59.5737 83.9096 55.9303 87.7519 52.9452C82.78 49.7507 77.6401 46.5103 72.4552 43.6742C70.0606 45.0841 57.2485 51.985 56.6919 53.9503C55.8474 56.9322 56.415 68.8657 56.5221 72.6405ZM72.0471 93.5167L67.4594 96.0297C68.7003 96.8014 71.3358 98.8819 72.6988 98.8323C74.1007 97.8445 75.5041 96.9069 76.9765 96.0249C75.8474 95.3913 73.2058 93.4561 72.0471 93.5167ZM89.4758 105.729C84.4904 109.025 79.1839 112.246 73.8838 115.013C80.1768 118.239 86.2339 122.206 92.3091 125.836C97.112 122.466 102.39 119.432 107.518 116.574C101.367 113.223 95.5492 109.227 89.4758 105.729ZM54.5132 105.75C48.8438 109.634 42.4703 113.191 36.4329 116.497C38.6523 117.857 50.795 125.822 52.0902 125.869C58.0396 122.228 64.0104 118.623 70.0023 115.052C67.0161 113.207 57.2531 106.695 54.5132 105.75Z"/>
	<path fill="#0278B0" d="M464.624 52.1122C468.246 51.7146 472.082 51.942 475.728 51.955C475.807 52.1205 475.88 52.2911 475.931 52.4677C476.468 54.3203 476.236 68.9508 475.447 70.3135C477.328 69.5496 478.745 67.9776 480.764 67.3338C484.791 66.0501 489.908 66.8409 493.597 68.799C497.756 71.0061 500.49 74.8561 501.835 79.312C502.375 81.1026 502.681 82.9615 502.845 84.8227C503.098 87.6981 503.459 102.916 502.56 104.585C498.74 104.43 494.903 104.529 491.081 104.557C491.25 104.286 491.376 104.013 491.441 103.697C491.786 102.03 491.88 93.4505 491.058 92.1379C491.089 92.0844 491.119 92.0307 491.145 91.975C491.16 91.9428 491.174 91.91 491.19 91.878C491.99 90.2251 491.53 83.6286 490.961 81.8118C490.442 80.1542 489.359 78.7386 487.807 77.9344C485.881 76.9358 483.281 76.865 481.238 77.5299C475.163 79.508 476.045 86.2636 476.079 91.3268L476.065 100.755C476.058 101.838 476.302 103.565 475.785 104.494C475.764 104.532 475.741 104.569 475.718 104.607C471.844 104.386 467.933 104.513 464.054 104.539C465.098 102.898 464.467 67.526 464.462 62.9247C464.458 59.543 464.019 55.4107 464.624 52.1122Z"/>
	<path fill="#0278B0" d="M269.474 66.927C272.989 66.643 276.311 66.6213 279.761 67.5247C283.405 68.479 286.949 70.5015 288.871 73.8494C290.228 76.2124 290.709 79.035 289.964 81.6773C289.12 84.6722 286.844 87.0178 284.168 88.4941C279.452 91.0964 273.32 91.459 268.147 90.2651C266.896 89.9765 265.69 89.4555 264.45 89.1024C266.293 90.4516 267.255 92.0545 269.468 93.1031C274.493 95.4842 285.512 92.2237 287.3 93.2638L287.121 93.9561C287.233 94.1863 287.331 94.4222 287.392 94.6714C287.802 96.3342 287.931 102.051 287.066 103.439C286.819 103.521 286.569 103.595 286.317 103.661C279.143 105.539 268.786 105.855 262.323 102.003C258.203 99.5487 255.466 95.6585 254.304 91.0254C253.012 85.8788 253.632 80.2461 256.392 75.6713C259.36 70.7525 264.071 68.2851 269.474 66.927ZM265.415 81.3523C267.621 81.6125 269.825 81.8928 272.026 82.193C274.091 82.404 276.158 82.6204 277.877 81.1894C278.215 80.9081 278.43 80.535 278.623 80.1459C278.647 79.4898 278.688 79.101 278.213 78.574C277.256 77.5143 275.573 77.5319 274.264 77.5351C273.91 77.5339 273.555 77.5501 273.202 77.5835C268.927 78.2169 268.828 79.3302 265.415 81.3523Z"/>
	<path fill="#0278B0" d="M402.331 66.9272C405.515 66.5988 408.714 66.6279 411.839 67.3923C415.589 68.3099 419.32 70.2731 421.354 73.683C422.783 76.086 423.194 78.9607 422.496 81.6685C421.764 84.5283 419.765 86.7606 417.265 88.2422C410.923 92.0008 403.821 91.1098 397.058 89.3759C399.25 90.6134 400.609 92.5681 403.111 93.5535C405.8 94.6125 411.964 93.9332 414.869 93.5514C416.392 93.3513 418.322 92.5418 419.831 93.0332L420.027 93.5099L419.571 94.4764C419.66 94.6199 419.742 94.7661 419.811 94.9206C420.464 96.3963 420.272 101.783 419.702 103.26C419.242 103.601 418.596 103.716 418.046 103.841C410.587 105.536 401.042 105.928 394.411 101.707C390.331 99.1096 387.735 94.9406 386.714 90.2538C385.625 85.2546 386.426 79.6317 389.218 75.306C392.328 70.4879 396.885 68.1118 402.331 66.9272ZM398.229 81.2198C400.32 81.6332 402.39 81.9676 404.509 82.2054C406.618 82.3978 408.751 82.6388 410.489 81.1438C410.89 80.7982 411.177 80.3935 411.218 79.8546C411.254 79.3847 411.093 78.9397 410.765 78.5919C409.781 77.5474 408.017 77.5124 406.682 77.5206C406.315 77.5238 405.949 77.5448 405.584 77.5836C401.517 78.344 401.447 79.3157 398.229 81.2198Z"/>
	<path fill="#0278B0" d="M175.327 66.8719C179.164 66.5905 182.854 66.7324 186.538 67.9947C189.829 69.1223 192.836 71.2793 194.381 74.4652C195.577 76.9295 195.825 79.7302 194.898 82.3226C193.814 85.3573 191.435 87.5916 188.56 88.9427C182.722 91.687 176.235 91.4196 170.301 89.254C170.752 89.8654 171.213 90.478 171.724 91.0413C175.273 94.9563 182.387 94.2983 187.134 93.5616C188.59 93.3356 190.248 92.7561 191.716 92.8603C192.176 92.8929 192.229 92.9156 192.528 93.2578L192.317 93.8576C192.366 93.9788 192.409 94.1023 192.446 94.2278C192.875 95.7031 192.855 102.135 192.192 103.345C191.678 103.725 190.611 103.841 189.988 103.956C182.424 105.349 173.289 106.083 166.661 101.472C162.683 98.6945 159.987 94.4327 159.182 89.6459C158.283 84.4155 159.266 78.7697 162.383 74.4185C165.442 70.1496 170.218 67.6951 175.327 66.8719ZM171.333 81.4188C173.182 81.6697 175.043 81.9825 176.9 82.1433C179.01 82.3727 181.09 82.7121 182.899 81.2728C183.291 80.9601 183.523 80.5609 183.736 80.1147C183.752 79.4616 183.8 79.0686 183.332 78.5431C182.458 77.5599 180.944 77.5456 179.736 77.5395C179.348 77.5376 178.963 77.545 178.576 77.575C175.362 78.1075 173.396 78.7041 171.333 81.4188Z"/>
	<path fill="#0278B0" d="M339.5 66.6673C343.964 66.3395 349.266 67.235 353.603 68.1854C353.739 68.3251 353.865 68.4806 353.922 68.671C354.524 70.6862 354.763 77.3633 353.747 79.0456C350.291 77.2999 344.397 77.0883 340.586 76.9814C338.754 76.9299 335.06 77.1001 333.672 78.4182C334.03 80.2697 348.777 80.9476 353.327 85.4464C355.351 87.4484 355.998 90.1475 355.999 92.9189C356 95.8182 355.038 98.2578 352.964 100.297C348.761 104.431 342.71 105.054 337.111 105.014C332.07 104.756 327.124 104.032 322.117 103.465C322.249 103.233 322.366 102.993 322.439 102.735C322.897 101.106 322.811 94.166 322.031 92.7285C324.552 92.9081 327.209 93.7059 329.743 94.0567C332.646 94.4585 342.324 95.0278 344.636 93.8118C345.001 93.6194 344.984 93.5138 345.098 93.1338C343.694 90.785 330.761 90.2346 326.217 86.3415C324.314 84.7106 323.312 82.6572 323.129 80.1652C322.893 76.9401 323.417 73.9868 325.586 71.4852C329.03 67.5129 334.602 67.0133 339.5 66.6673Z"/>
	<path fill="#0278B0" d="M220.115 47.9533C221.534 47.9002 222.955 47.9382 224.374 47.9576C224.492 48.2199 224.595 48.4875 224.661 48.7681C225.009 50.2535 225.248 57.8516 224.482 59.0916C222.567 58.8075 220.777 58.8672 218.88 59.2727C211.299 60.8933 213.937 64.8647 211.751 68.1995C211.737 68.2203 211.723 68.2408 211.709 68.2615C214.861 68.2189 218.033 68.2438 221.179 68.0395C221.277 68.2623 221.368 68.491 221.432 68.7263C221.894 70.414 221.991 77.3927 221.169 78.8554C218.156 78.4966 214.914 78.821 211.855 78.7148C212.035 79.0112 212.185 79.3246 212.26 79.6656C212.658 81.4947 212.537 97.4127 212.289 99.8432C212.246 100.267 212.097 100.619 211.869 100.976C211.985 101.171 212.084 101.372 212.155 101.589C212.481 102.598 212.428 103.655 211.961 104.602C208.091 104.38 204.174 104.505 200.296 104.514C201.705 102.366 199.933 69.5757 201.529 62.3751C202.121 59.7045 203.239 57.2505 204.93 55.0968C208.788 50.1858 214.179 48.6647 220.115 47.9533Z"/>
	<path fill="#0278B0" d="M248.976 47.9536C250.309 47.8535 251.704 47.9716 253.042 48.0076C253.064 48.0545 253.086 48.1019 253.109 48.1484C253.211 48.3511 253.312 48.55 253.382 48.7672C253.896 50.3796 253.864 57.7902 253.186 59.12C251.312 58.8279 249.474 58.8405 247.615 59.2504C244.816 59.8674 241.996 61.605 241.363 64.606C241.128 65.7221 241.166 67.0873 240.514 68.0451C240.484 68.0902 240.451 68.1339 240.419 68.1783C243.522 68.1917 246.624 68.1625 249.726 68.0905C249.881 68.3255 250.023 68.5753 250.105 68.846C250.6 70.4788 250.491 77.4974 249.805 78.8283C246.856 78.4203 243.463 78.7676 240.448 78.7076C240.635 78.9927 240.832 79.3066 240.913 79.6416C241.232 80.9666 241.092 98.2821 240.915 100.541C240.879 100.997 240.732 101.374 240.484 101.758C240.639 102.045 240.811 102.36 240.892 102.676C241.072 103.369 241.072 103.778 240.743 104.391C237.407 104.995 232.616 104.531 229.119 104.566C230.455 102.401 228.692 69.3565 230.029 62.606C230.528 59.9908 231.63 57.5283 233.247 55.4147C237.28 50.2231 242.758 48.708 248.976 47.9536Z"/>
	<path fill="#0278B0" d="M445.273 66.6674C449.165 66.3419 453.842 66.9684 457.584 68.0652C458.457 70.2135 458.289 77.4716 457.629 79.6603C456.904 79.0076 455.697 78.7376 454.772 78.5054C450.633 77.4651 444.979 76.6111 441.154 78.9275C439.406 79.9773 438.164 81.6983 437.719 83.6892C437.194 85.945 437.476 88.5038 438.731 90.4779C439.91 92.3337 441.856 93.5083 443.981 93.96C447.472 94.7017 454.639 94.1155 457.639 92.1801C457.732 92.3617 457.807 92.5494 457.854 92.7485C458.237 94.3672 458.404 98.5514 457.55 99.9344C457.577 99.982 457.604 100.029 457.629 100.077C458.226 101.254 458.003 102.572 457.605 103.763C456.563 104.432 453.378 104.609 451.997 104.742C445.397 105.376 437.991 104.927 432.662 100.499C428.896 97.3702 426.701 92.4905 426.257 87.6698C425.779 82.4871 427.132 77.2917 430.51 73.2719C434.334 68.7221 439.584 67.1799 445.273 66.6674Z"/>
	<path fill="#0278B0" d="M360.066 58.0902C363.75 57.7299 367.667 57.9425 371.377 57.9456C371.504 58.1581 371.633 58.3986 371.68 58.6437C372.02 60.4305 372.132 66.8909 371.223 68.2587C374.763 68.177 378.304 68.1405 381.845 68.149C381.944 68.3184 382.02 68.4855 382.09 68.6695C382.686 70.2425 382.412 77.4256 381.806 78.8263C378.512 78.4101 374.612 78.7744 371.268 78.7766C372.89 81.7237 370.552 87.1787 373.221 91.1629C374.879 93.637 377.919 94.3321 380.722 94.2398C381.698 94.2077 382.778 93.9876 383.737 94.19C383.778 94.1987 383.818 94.2085 383.859 94.2178C383.881 94.2394 383.905 94.2594 383.926 94.2827C383.96 94.3208 383.99 94.3622 384.022 94.4016C384.139 94.5428 384.268 94.7009 384.324 94.8789C384.777 96.3316 384.616 103.647 383.995 104.826C377.79 105.102 371.906 104.393 366.955 100.277C364.109 97.9176 362.056 94.7406 361.073 91.1756C360.023 87.4295 360.213 83.4195 360.216 79.5651C360.223 72.5207 360.737 65.0882 360.066 58.0902Z"/>
	<path fill="#0278B0" d="M146.918 66.9219C149.255 66.9158 151.592 66.9336 153.928 66.9755C153.626 70.8732 153.764 74.8658 153.765 78.7744L153.781 97.9195C153.787 106.946 153.879 114.838 150.72 123.43C149.381 123.506 147.993 123.407 146.65 123.383C144.154 123.411 141.657 123.412 139.16 123.386C140.547 119.947 141.466 116.337 141.895 112.654C142.843 104.67 142.301 96.1767 142.295 88.1289C142.289 81.1878 142.733 73.9236 142.079 67.0327L146.918 66.9219Z"/>
	<path fill="#0278B0" d="M314.835 66.6667C316.312 66.5877 317.748 66.5047 319.223 66.6903C319.318 66.8489 319.395 67.0089 319.467 67.1795C320.108 68.688 320.002 76.5297 319.397 77.9231C317.222 77.5178 314.983 77.6153 312.851 78.2081C310.91 78.762 309.244 79.8119 308.26 81.621C306.206 85.4026 307.205 95.6006 307.163 100.28C307.151 101.586 307.321 103.382 306.672 104.546C304.528 104.484 302.37 104.523 300.224 104.514L295.379 104.553C295.951 103.435 295.675 101.429 295.66 100.188C295.56 91.9567 294.276 80.7256 299.618 73.9423C303.383 69.162 309.007 67.3347 314.835 66.6667Z"/>
	<path fill="#0278B0" d="M146.011 50.6039C149.571 49.5283 153.325 51.5654 154.365 55.1379C155.406 58.7104 153.333 62.4459 149.753 63.4523C146.221 64.445 142.55 62.406 141.523 58.8821C140.497 55.3582 142.499 51.6648 146.011 50.6039Z"/>
</svg>
